<svg xmlns="http://www.w3.org/2000/svg" viewBox="0 0 30 30" fill="#556"><title>vk</title><g id="Layer_2" data-name="Layer 2"><g id="Layer_1-2" data-name="Layer 1"><path d="M15,0A15,15,0,1,0,30,15,15,15,0,0,0,15,0Zm7.16,20.13H19.91c-1.27,0-1.49-.73-2.53-1.77s-1.47-.22-1.45,1.13a.56.56,0,0,1-.59.64,6,6,0,0,1-5.19-1.9,24.35,24.35,0,0,1-4.06-6.86c0-.25.21-.37.56-.37H8.93c.61,0,.66.3.82.69.71,1.6,2.39,4.82,2.84,3,.26-1,.36-3.42-.74-3.62-.63-.12.48-.79,2.07-.79a5.23,5.23,0,0,1,1.27.15c.81.18.81.55.8,1.08,0,2-.28,3.35.25,3.69s1.83-1.81,2.53-3.46c.19-.45.23-.76.78-.76h2.79c1.47,0-.19,2.11-1.45,3.75-1,1.32-1,1.35.21,2.45C22,18,23,19.05,23,19.66,23,20,22.72,20.13,22.16,20.13Z"/></g></g></svg>