<svg xmlns="http://www.w3.org/2000/svg" viewBox="0 0 30 30" fill="#556"><title>youtube</title><g id="Layer_2" data-name="Layer 2"><g id="Layer_1-2" data-name="Layer 1"><polygon points="13.51 17.2 17.83 14.95 13.51 12.67 13.51 17.2"/><path d="M15,0A15,15,0,1,0,30,15,15,15,0,0,0,15,0Zm8.16,15.72A24.7,24.7,0,0,1,23,18.33a3.53,3.53,0,0,1-.64,1.6,2.29,2.29,0,0,1-1.6.68c-2.24.16-5.6.17-5.6.17s-4.16,0-5.44-.16A2.74,2.74,0,0,1,8,19.93a3.47,3.47,0,0,1-.63-1.6,24.7,24.7,0,0,1-.16-2.61V14.5a24.46,24.46,0,0,1,.16-2.61A3.47,3.47,0,0,1,8,10.29a2.25,2.25,0,0,1,1.61-.68c2.24-.17,5.59-.17,5.59-.17h0s3.36,0,5.6.17a2.25,2.25,0,0,1,1.6.68,3.53,3.53,0,0,1,.64,1.6,24.46,24.46,0,0,1,.16,2.61Z"/></g></g></svg>