<?xml version="1.0" standalone="no"?>
<!DOCTYPE svg PUBLIC "-//W3C//DTD SVG 20010904//EN"
 "http://www.w3.org/TR/2001/REC-SVG-20010904/DTD/svg10.dtd">
<svg version="1.0" xmlns="http://www.w3.org/2000/svg"
 width="568.000000pt" height="568.000000pt" viewBox="0 0 568.000000 568.000000"
 preserveAspectRatio="xMidYMid meet">
<metadata>
Created by potrace 1.11, written by Peter Selinger 2001-2013
</metadata>
<g transform="translate(0.000000,568.000000) scale(0.100000,-0.100000)"
fill="#000000" stroke="none">
<path d="M2828 3615 c-2 -3 -27 -7 -54 -10 -105 -12 -272 -66 -315 -102 -8 -7
-20 -13 -25 -13 -5 0 -21 -10 -36 -23 -15 -12 -44 -35 -65 -52 -20 -16 -48
-43 -62 -59 -15 -16 -34 -36 -43 -44 -9 -9 -15 -19 -12 -24 3 -4 1 -8 -4 -8
-12 0 -81 -113 -97 -160 -1 -3 -7 -17 -13 -32 -30 -73 -45 -158 -45 -268 0
-63 2 -131 5 -150 9 -57 45 -164 74 -221 52 -103 171 -242 243 -285 17 -10 31
-22 31 -26 0 -4 6 -8 14 -8 8 0 16 -3 18 -8 6 -15 146 -72 228 -93 88 -22 290
-34 290 -17 0 5 6 8 13 7 43 -7 274 79 315 119 7 6 17 12 22 12 12 0 162 148
193 190 169 232 196 562 66 819 -57 112 -73 134 -158 219 -53 52 -163 132
-182 132 -5 0 -9 5 -9 12 0 6 -3 8 -6 5 -4 -4 -19 0 -33 8 -41 22 -141 53
-196 61 -27 3 -58 11 -69 16 -13 7 -16 7 -12 -1 4 -6 2 -11 -3 -11 -6 0 -11 4
-11 8 0 4 -9 8 -20 8 -11 0 -20 -4 -20 -8 0 -4 -5 -8 -11 -8 -5 0 -7 5 -4 10
6 10 2 14 -7 5z"/>
<path d="M4836 3613 c-3 -4 -26 -8 -49 -10 -39 -2 -79 -9 -84 -13 -3 -3 -3 -3
-53 -14 -19 -5 -41 -13 -47 -18 -7 -6 -13 -8 -13 -5 0 6 -92 -40 -149 -74 -54
-32 -147 -118 -198 -184 -265 -344 -205 -842 133 -1110 21 -16 42 -35 48 -40
13 -12 161 -88 179 -92 7 -1 37 -9 67 -17 96 -26 113 -29 213 -32 58 -1 97 1
97 7 0 6 4 8 9 5 5 -3 30 1 56 9 27 8 51 13 54 13 21 -4 183 74 241 115 148
107 269 276 309 433 7 27 15 58 18 69 13 46 14 236 2 292 -7 32 -14 64 -15 70
-1 7 -15 45 -30 85 -48 128 -158 268 -277 356 -112 82 -282 143 -409 146 -25
0 -44 4 -41 9 2 4 -1 7 -6 7 -6 0 -11 -6 -11 -12 0 -9 -4 -8 -10 2 -9 13 -10
13 -10 0 0 -11 -2 -12 -8 -2 -5 7 -12 9 -16 5z"/>
<path d="M790 3600 c-6 -4 -29 -6 -51 -5 -21 1 -39 -1 -39 -5 0 -3 -10 -7 -22
-7 -22 -1 -60 -9 -65 -13 -2 -2 -7 -4 -13 -5 -5 -1 -13 -4 -17 -5 -5 -1 -11
-2 -15 -1 -5 0 -8 -3 -8 -7 0 -4 -10 -8 -22 -9 -11 -1 -24 -6 -27 -10 -3 -4
-13 -9 -21 -11 -8 -2 -17 -8 -18 -13 -2 -5 -7 -7 -12 -4 -5 3 -16 -2 -24 -11
-9 -8 -16 -13 -16 -9 0 6 -15 -5 -51 -37 -10 -10 -19 -15 -19 -11 0 6 -136
-133 -174 -177 -17 -20 -99 -187 -102 -208 -2 -9 -10 -44 -19 -77 -32 -120
-19 -312 30 -442 25 -65 73 -156 87 -161 4 -2 8 -8 8 -13 0 -12 9 -23 86 -104
33 -36 64 -65 67 -65 7 0 36 -23 63 -48 8 -7 14 -10 14 -6 0 4 8 0 18 -8 19
-17 53 -32 65 -30 4 1 7 -3 7 -8 0 -5 3 -9 8 -8 4 0 25 -7 46 -16 21 -10 47
-18 57 -19 11 -1 19 -5 19 -9 0 -3 8 -6 18 -6 9 0 31 -3 47 -7 17 -4 40 -6 53
-6 15 1 21 -3 16 -11 -5 -7 -3 -8 6 -3 20 13 130 13 123 1 -4 -6 2 -4 13 5 10
9 28 15 38 13 11 -1 25 0 30 4 6 3 22 8 36 9 14 2 31 4 38 5 6 1 12 4 12 8 0
4 6 7 13 8 23 2 42 8 57 17 8 5 21 10 29 12 8 1 18 8 22 15 5 7 9 9 9 4 0 -5
8 -2 18 7 10 10 22 14 25 10 4 -3 7 -1 7 5 0 6 8 13 19 17 10 3 32 18 47 33
16 14 31 27 34 27 10 0 90 80 90 90 0 6 9 16 20 23 11 7 20 18 20 25 0 6 12
26 28 42 15 17 27 35 28 40 0 6 12 35 27 66 79 165 91 406 27 568 -10 25 -18
51 -19 56 -3 18 -84 155 -93 155 -4 0 -8 6 -8 14 0 8 -7 17 -16 20 -9 3 -12
11 -8 18 4 7 4 10 0 6 -4 -3 -34 19 -66 50 -69 68 -93 88 -100 85 -3 -1 -9 5
-13 13 -5 8 -12 12 -18 9 -5 -4 -9 -1 -9 4 0 6 -9 11 -20 11 -11 0 -20 5 -20
11 0 5 -4 7 -10 4 -5 -3 -10 -1 -10 5 0 6 -4 9 -9 6 -5 -4 -11 -1 -13 5 -2 7
-13 13 -24 14 -10 1 -29 7 -42 14 -12 6 -27 9 -32 6 -6 -3 -10 -2 -10 3 0 5
-6 9 -12 10 -7 0 -29 3 -48 7 -19 4 -51 8 -70 10 -19 1 -35 4 -35 5 0 6 -76 6
-85 0z"/>
</g>
</svg>
