<svg id="instagram" xmlns="http://www.w3.org/2000/svg" viewBox="0 0 32 32">
	<title>instagram</title>
	<g id="Layer_2" data-name="Layer 2">
		<g id="Layer_1-2" data-name="Layer 1">
			<path d="M15,18a3,3,0,1,0-2.43-4.75A3,3,0,0,0,12,15,3,3,0,0,0,15,18Z"/>
			<polygon points="21.56 11.33 21.56 8.81 21.56 8.44 21.18 8.44 18.66 8.44 18.67 11.34 21.56 11.33"/>
			<path d="M15,0A15,15,0,1,0,30,15,15,15,0,0,0,15,0Zm8.53,13.25v7a3.3,3.3,0,0,1-3.3,3.3H9.77a3.3,3.3,0,0,1-3.3-3.3V9.77a3.3,3.3,0,0,1,3.3-3.3H20.23a3.3,3.3,0,0,1,3.3,3.3Z"/>
			<path d="M19.67,15a4.67,4.67,0,0,1-9.34,0,4.63,4.63,0,0,1,.35-1.75H8.13v7a1.63,1.63,0,0,0,1.64,1.64H20.23a1.64,1.64,0,0,0,1.64-1.64v-7H19.32A4.63,4.63,0,0,1,19.67,15Z"/>
		</g>
	</g>
</svg>